HIERARCHY
ROOT Hips
{
 OFFSET 0.000000 0.000000 0.000000
 CHANNELS 6 Xposition Yposition Zposition Yrotation Xrotation Zrotation
 JOINT Chest
 {
  OFFSET 0.000000 9.585900 0.002600
  CHANNELS 3 Yrotation Xrotation Zrotation
  JOINT Chest2
  {
   OFFSET 0.000000 9.601200 -0.005300
   CHANNELS 3 Yrotation Xrotation Zrotation
   JOINT Chest3
   {
    OFFSET 0.000000 9.561800 0.000000
    CHANNELS 3 Yrotation Xrotation Zrotation
    JOINT Chest4
    {
     OFFSET 0.000000 9.552100 0.000000
     CHANNELS 3 Yrotation Xrotation Zrotation
     JOINT Neck
     {
      OFFSET 0.000000 14.453000 0.000000
      CHANNELS 3 Yrotation Xrotation Zrotation
      JOINT Head
      {
       OFFSET 0.000000 8.936500 -0.011300
       CHANNELS 3 Yrotation Xrotation Zrotation
       End Site
       {
        OFFSET 0.000000 17.073600 -0.006000
       }
      }
     }
     JOINT RightCollar
     {
      OFFSET -2.921100 9.558500 0.000000
      CHANNELS 3 Yrotation Xrotation Zrotation
      JOINT RightShoulder
      {
       OFFSET -13.519700 0.000000 0.000000
       CHANNELS 3 Yrotation Xrotation Zrotation
       JOINT RightElbow
       {
        OFFSET 0.000000 -29.696600 0.000000
        CHANNELS 3 Yrotation Xrotation Zrotation
        JOINT RightWrist
        {
         OFFSET 0.000000 -24.004700 0.000000
         CHANNELS 3 Yrotation Xrotation Zrotation
         End Site
         {
          OFFSET 0.000000 -17.728500 0.000000
         }
        }
       }
      }
     }
     JOINT LeftCollar
     {
      OFFSET 2.921100 9.558500 0.000000
      CHANNELS 3 Yrotation Xrotation Zrotation
      JOINT LeftShoulder
      {
       OFFSET 13.519700 0.000000 0.000000
       CHANNELS 3 Yrotation Xrotation Zrotation
       JOINT LeftElbow
       {
        OFFSET 0.000000 -29.696600 0.000000
        CHANNELS 3 Yrotation Xrotation Zrotation
        JOINT LeftWrist
        {
         OFFSET 0.000000 -24.004700 0.000000
         CHANNELS 3 Yrotation Xrotation Zrotation
         End Site
         {
          OFFSET 0.000000 -17.728500 0.000000
         }
        }
       }
      }
     }
    }
   }
  }
 }
 JOINT RightHip
 {
  OFFSET -7.771700 -0.012900 -0.001300
  CHANNELS 3 Yrotation Xrotation Zrotation
  JOINT RightKnee
  {
   OFFSET 0.000000 -40.869800 0.001200
   CHANNELS 3 Yrotation Xrotation Zrotation
   JOINT RightAnkle
   {
    OFFSET 0.000000 -39.717900 0.002100
    CHANNELS 3 Yrotation Xrotation Zrotation
    JOINT RightToe
    {
     OFFSET 0.000000 -4.965400 11.033500
     CHANNELS 3 Yrotation Xrotation Zrotation
     End Site
     {
      OFFSET 0.000000 -1.423100 5.872300
     }
    }
   }
  }
 }
 JOINT LeftHip
 {
  OFFSET 7.771700 -0.012900 -0.001300
  CHANNELS 3 Yrotation Xrotation Zrotation
  JOINT LeftKnee
  {
   OFFSET 0.000000 -40.869800 0.001200
   CHANNELS 3 Yrotation Xrotation Zrotation
   JOINT LeftAnkle
   {
    OFFSET 0.000000 -39.717900 0.002100
    CHANNELS 3 Yrotation Xrotation Zrotation
    JOINT LeftToe
    {
     OFFSET 0.000000 -4.965400 11.033500
     CHANNELS 3 Yrotation Xrotation Zrotation
     End Site
     {
      OFFSET 0.000000 -1.423100 5.872300
     }
    }
   }
  }
 }
}
MOTION
Frames: 12
Frame Time: 0.008333
-91.136051 62.138219 18.107862 173.867537 -49.188909 -1.353270 5.667347 26.116313 0.200670 0.874280 4.294933 -0.020127 1.362985 6.917071 -0.015006 4.408298 21.174989 0.543377 0.076210 20.434300 1.810399 -0.359044 1.989537 3.261109 6.389541 6.159938 6.231433 -1.293848 -7.219129 -15.179234 -126.255583 -63.213901 156.596756 14.716510 0.406515 12.176587 -7.304505 5.321428 1.402989 10.594264 -21.433855 9.346853 98.963729 -57.716523 -120.175164 18.489085 -20.390916 5.386042 2.724926 -18.035446 -3.479097 -2.053302 60.764742 -5.316411 2.149368 -6.623434 9.845197 0.234858 -0.587674 0.142257 -3.992316 -14.220860 4.658529 30.246519 75.781719 32.543575 1.777134 -11.743466 -5.554321 0.199149 0.810917 0.111107
-91.145384 62.136935 18.111418 173.883894 -49.154741 -1.329754 5.629020 26.118910 0.150128 0.862675 4.332573 -0.027740 1.376162 6.866015 -0.010774 4.390745 21.196887 0.532402 0.097028 20.358576 1.809747 -0.314945 1.834441 3.253458 6.420545 6.115701 6.232274 -1.246454 -7.268982 -15.183275 -126.281621 -63.203957 156.600666 14.703738 0.401936 12.166781 -7.292478 5.322512 1.371454 10.588536 -21.462222 9.391548 99.045817 -57.729205 -120.227311 18.511469 -20.388877 5.435344 2.731856 -18.066920 -3.513089 -2.046402 60.761455 -5.319043 2.117897 -6.614843 9.837866 0.265975 -0.584202 0.157110 -3.992635 -14.257328 4.615904 30.240586 75.769438 32.540531 1.753462 -11.758218 -5.557195 0.280153 0.836520 0.122328
-91.145761 62.137436 18.115446 173.865674 -49.132887 -1.334051 5.645625 26.126414 0.163444 0.863273 4.336895 -0.028909 1.372503 6.851268 -0.011212 4.376509 21.225001 0.519702 0.140113 20.237937 1.805893 -0.283967 1.706996 3.257677 6.467854 6.060318 6.244420 -1.224691 -7.312230 -15.195291 -126.339670 -63.160330 156.663224 14.689082 0.378296 12.151124 -7.274930 5.296378 1.367757 10.580204 -21.427039 9.425911 99.169594 -57.721379 -120.329698 18.524804 -20.385410 5.481578 2.749594 -18.088682 -3.488585 -2.047730 60.756682 -5.325076 2.121650 -6.628018 9.843805 0.246540 -0.565953 0.151990 -3.985599 -14.277078 4.632490 30.234335 75.762519 32.537063 1.753162 -11.736788 -5.538801 0.263670 0.820317 0.103484
-91.149747 62.136610 18.120712 173.852993 -49.100020 -1.321837 5.652389 26.123088 0.155984 0.864962 4.341823 -0.029587 1.373450 6.890527 -0.016537 4.386134 21.253124 0.514260 0.161833 20.097510 1.813343 -0.247564 1.541580 3.254763 6.491854 5.955104 6.254094 -1.218231 -7.352551 -15.202572 -126.321094 -63.156856 156.635079 14.683203 0.368720 12.137068 -7.284458 5.221186 1.381051 10.579457 -21.401066 9.448402 99.257515 -57.711010 -120.406674 18.535750 -20.376569 5.524677 2.777084 -18.121356 -3.483081 -2.062362 60.751176 -5.343182 2.099277 -6.628278 9.843298 0.254882 -0.558057 0.150245 -3.977941 -14.309495 4.626047 30.237337 75.752865 32.543632 1.735110 -11.737169 -5.530435 0.257356 0.824961 0.097635
-91.155071 62.137879 18.124283 173.849162 -49.083758 -1.306653 5.652969 26.137020 0.144199 0.863003 4.329784 -0.031669 1.380676 6.915876 -0.015551 4.392548 21.262553 0.512989 0.184196 20.007366 1.814427 -0.209194 1.373721 3.251106 6.517327 5.904140 6.265549 -1.229113 -7.383430 -15.211222 -126.304770 -63.162258 156.606123 14.674924 0.345477 12.133565 -7.294144 5.194990 1.384789 10.575621 -21.413423 9.454669 99.256240 -57.720019 -120.390105 18.554750 -20.366699 5.553959 2.790150 -18.135414 -3.485702 -2.039724 60.748225 -5.345074 2.087861 -6.633415 9.857783 0.246109 -0.555265 0.147126 -3.973716 -14.326557 4.606259 30.238660 75.746018 32.546411 1.730614 -11.728861 -5.525581 0.229344 0.818356 0.097501
-91.158800 62.140039 18.127421 173.851209 -49.074739 -1.303833 5.652062 26.143110 0.141339 0.871229 4.359224 -0.029691 1.380270 6.915128 -0.016717 4.389030 21.246071 0.509953 0.218469 19.943931 1.815132 -0.166985 1.201896 3.246672 6.547923 5.876555 6.273120 -1.257746 -7.394634 -15.216240 -126.319136 -63.138833 156.640772 14.668157 0.350910 12.121667 -7.298379 5.180705 1.386910 10.587265 -21.362566 9.462115 99.242137 -57.711534 -120.373805 18.566552 -20.376892 5.549143 2.803658 -18.141282 -3.486401 -2.050693 60.743755 -5.355704 2.081017 -6.635751 9.855679 0.251996 -0.554502 0.149599 -3.975604 -14.336522 4.595404 30.242433 75.741074 32.548817 1.738263 -11.717892 -5.520107 0.222888 0.810673 0.094531
-91.163080 62.141536 18.131014 173.858629 -49.061395 -1.300213 5.655148 26.166885 0.140073 0.873888 4.367861 -0.029596 1.381782 6.916994 -0.017456 4.378706 21.227203 0.507603 0.260544 19.881323 1.814389 -0.120375 1.026137 3.241388 6.576385 5.854243 6.280339 -1.257092 -7.424792 -15.222006 -126.324121 -63.139298 156.637462 14.662625 0.359914 12.112652 -7.301274 5.165547 1.387957 10.610378 -21.310542 9.460676 99.224265 -57.700517 -120.376712 18.573372 -20.377527 5.559951 2.818441 -18.151729 -3.494752 -2.063038 60.740274 -5.363160 2.074551 -6.637687 9.853001 0.257468 -0.554859 0.151627 -3.979099 -14.350044 4.581520 30.228238 75.731145 32.535775 1.735746 -11.704666 -5.518434 0.239910 0.805891 0.095218
-91.164609 62.143412 18.134464 173.862899 -49.052080 -1.308197 5.673445 26.193612 0.159327 0.873531 4.368427 -0.029791 1.389800 6.940624 -0.016019 4.409930 21.289536 0.518167 0.265313 19.725513 1.816832 -0.068410 0.848379 3.234097 6.605353 5.734661 6.280548 -1.278121 -7.461685 -15.226608 -126.332935 -63.160249 156.603320 14.655838 0.361818 12.107489 -7.341726 5.069482 1.403627 10.634485 -21.265622 9.454114 99.270182 -57.683661 -120.459759 18.583145 -20.348090 5.603895 2.829249 -18.158531 -3.487550 -2.065096 60.734919 -5.360928 2.065818 -6.633484 9.854172 0.265613 -0.560138 0.148355 -3.983261 -14.358306 4.583353 30.227540 75.724558 32.539378 1.735079 -11.698932 -5.528791 0.254192 0.803704 0.103194
-91.165664 62.145178 18.137770 173.865463 -49.043390 -1.315174 5.682356 26.199359 0.171560 0.882473 4.393863 -0.024823 1.393348 6.953698 -0.015140 4.401723 21.269096 0.513972 0.314676 19.665979 1.819685 -0.007130 0.669434 3.224169 6.653119 5.704270 6.285491 -1.331871 -7.472291 -15.230655 -126.342183 -63.164710 156.618306 14.646552 0.359855 12.104692 -7.328384 5.082866 1.417836 10.653281 -21.233223 9.425636 99.323030 -57.671071 -120.553229 18.588457 -20.315677 5.660949 2.839442 -18.165355 -3.477553 -2.071720 60.729845 -5.367009 2.060099 -6.626947 9.857787 0.270998 -0.566591 0.146608 -3.985808 -14.365416 4.585880 30.226320 75.716647 32.539743 1.746942 -11.692112 -5.540865 0.243434 0.802981 0.112657
-91.168335 62.146570 18.140760 173.865872 -49.033735 -1.308345 5.695196 26.232568 0.180498 0.880655 4.396000 -0.026668 1.396365 6.968737 -0.014479 4.414786 21.304763 0.520991 0.348147 19.552355 1.818799 0.066979 0.489221 3.213041 6.657750 5.612675 6.272401 -1.333704 -7.481539 -15.231671 -126.362526 -63.179804 156.608697 14.641414 0.360358 12.106874 -7.345076 5.007603 1.432014 10.687174 -21.165176 9.405994 99.210641 -57.679795 -120.466887 18.592449 -20.355234 5.655541 2.853446 -18.173798 -3.481814 -2.077263 60.727311 -5.374196 2.059936 -6.624707 9.859378 0.264690 -0.569062 0.151124 -3.983752 -14.374036 4.575766 30.228690 75.709922 32.546563 1.729468 -11.691014 -5.538827 0.248351 0.802874 0.111014
-91.171425 62.147597 18.143514 173.863946 -49.022985 -1.294936 5.703526 26.267293 0.181461 0.877869 4.386453 -0.030172 1.401475 6.997794 -0.012334 4.424394 21.344897 0.527026 0.392541 19.436262 1.818992 0.156711 0.308304 3.202182 6.641724 5.511699 6.254109 -1.291349 -7.473440 -15.236131 -126.412291 -63.190659 156.604412 14.639026 0.356480 12.106596 -7.353140 4.924066 1.451732 10.751372 -21.018231 9.369805 99.250750 -57.669518 -120.581488 18.595091 -20.370304 5.685429 2.880536 -18.183185 -3.493313 -2.090905 60.725612 -5.381638 2.054032 -6.621177 9.863638 0.268391 -0.574862 0.149854 -3.970707 -14.383732 4.555781 30.235197 75.695141 32.559564 1.741573 -11.683441 -5.541459 0.247994 0.802470 0.111858
-91.173181 62.149004 18.145517 173.864095 -49.017055 -1.288629 5.707528 26.298940 0.183177 0.874013 4.361330 -0.034737 1.411173 7.052338 -0.006571 4.427982 21.366738 0.529314 0.453464 19.339885 1.822822 0.264777 0.128041 3.191370 6.674776 5.431167 6.239672 -1.306936 -7.472491 -15.233715 -126.447928 -63.209446 156.622277 14.644986 0.354116 12.095932 -7.349372 4.857238 1.475789 10.769925 -20.961565 9.338708 99.179992 -57.675489 -120.539521 18.597255 -20.366960 5.733501 2.889114 -18.187339 -3.496975 -2.088645 60.722410 -5.382425 2.050599 -6.618340 9.864278 0.264191 -0.579873 0.147621 -3.967092 -14.388893 4.547006 30.246146 75.686845 32.573540 1.733268 -11.677806 -5.546975 0.249888 0.799375 0.116123
